<?xml version="1.0" encoding="UTF-8" standalone="no"?>
<!DOCTYPE svg PUBLIC "-//W3C//DTD SVG 1.1//EN"
 "http://www.w3.org/Graphics/SVG/1.1/DTD/svg11.dtd">
<!-- Generated by graphviz version 8.0.5 (20230430.1635)
 -->
<!-- Pages: 1 -->
<svg width="176pt" height="332pt"
 viewBox="0.00 0.00 176.45 332.00" xmlns="http://www.w3.org/2000/svg" xmlns:xlink="http://www.w3.org/1999/xlink">
<g id="graph0" class="graph" transform="scale(1 1) rotate(0) translate(4 328)">
<polygon fill="white" stroke="none" points="-4,4 -4,-328 172.45,-328 172.45,4 -4,4"/>
<!-- B/D -->
<g id="node1" class="node">
<title>B/D</title>
<ellipse fill="none" stroke="black" cx="27" cy="-306" rx="27" ry="18"/>
<text text-anchor="middle" x="27" y="-299.82" font-family="Times,serif" font-size="14.00">B/D</text>
</g>
<!-- A/B -->
<g id="node2" class="node">
<title>A/B</title>
<ellipse fill="none" stroke="black" cx="125" cy="-234" rx="27" ry="18"/>
<text text-anchor="middle" x="125" y="-227.82" font-family="Times,serif" font-size="14.00">A/B</text>
</g>
<!-- B/D&#45;&#45;A/B -->
<g id="edge1" class="edge">
<title>B/D&#45;&#45;A/B</title>
<path fill="none" stroke="black" d="M44.97,-292.16C62.66,-279.53 89.5,-260.36 107.14,-247.76"/>
</g>
<!-- C/D -->
<g id="node3" class="node">
<title>C/D</title>
<ellipse fill="none" stroke="black" cx="35" cy="-18" rx="27" ry="18"/>
<text text-anchor="middle" x="35" y="-11.82" font-family="Times,serif" font-size="14.00">C/D</text>
</g>
<!-- B/D&#45;&#45;C/D -->
<g id="edge2" class="edge">
<title>B/D&#45;&#45;C/D</title>
<path fill="none" stroke="black" d="M27.49,-287.54C28.92,-236.36 33.09,-87.12 34.52,-36.23"/>
</g>
<!-- B/C -->
<g id="node4" class="node">
<title>B/C</title>
<ellipse fill="none" stroke="black" cx="97" cy="-162" rx="27" ry="18"/>
<text text-anchor="middle" x="97" y="-155.82" font-family="Times,serif" font-size="14.00">B/C</text>
</g>
<!-- B/D&#45;&#45;B/C -->
<g id="edge3" class="edge">
<title>B/D&#45;&#45;B/C</title>
<path fill="none" stroke="black" d="M35.17,-288.43C48.66,-261.07 75.43,-206.75 88.89,-179.46"/>
</g>
<!-- A/B&#45;&#45;B/C -->
<g id="edge7" class="edge">
<title>A/B&#45;&#45;B/C</title>
<path fill="none" stroke="black" d="M118.36,-216.41C113.9,-205.25 108.04,-190.6 103.59,-179.47"/>
</g>
<!-- C/A -->
<g id="node6" class="node">
<title>C/A</title>
<ellipse fill="none" stroke="black" cx="122" cy="-90" rx="27" ry="18"/>
<text text-anchor="middle" x="122" y="-83.83" font-family="Times,serif" font-size="14.00">C/A</text>
</g>
<!-- A/B&#45;&#45;C/A -->
<g id="edge6" class="edge">
<title>A/B&#45;&#45;C/A</title>
<path fill="none" stroke="black" d="M128.48,-215.93C131.68,-198 135.57,-169 133,-144 131.75,-131.85 128.94,-118.37 126.46,-108.05"/>
</g>
<!-- B/C&#45;&#45;C/D -->
<g id="edge8" class="edge">
<title>B/C&#45;&#45;C/D</title>
<path fill="none" stroke="black" d="M89.77,-144.43C77.82,-117.07 54.1,-62.75 42.19,-35.46"/>
</g>
<!-- B/C&#45;&#45;C/A -->
<g id="edge9" class="edge">
<title>B/C&#45;&#45;C/A</title>
<path fill="none" stroke="black" d="M103.05,-144.05C106.98,-133.05 112.08,-118.76 116,-107.79"/>
</g>
<!-- F/A -->
<g id="node5" class="node">
<title>F/A</title>
<ellipse fill="none" stroke="black" cx="104" cy="-306" rx="27" ry="18"/>
<text text-anchor="middle" x="104" y="-299.82" font-family="Times,serif" font-size="14.00">F/A</text>
</g>
<!-- F/A&#45;&#45;A/B -->
<g id="edge4" class="edge">
<title>F/A&#45;&#45;A/B</title>
<path fill="none" stroke="black" d="M109.08,-288.05C112.39,-277.05 116.67,-262.76 119.96,-251.79"/>
</g>
<!-- F/A&#45;&#45;C/A -->
<g id="edge5" class="edge">
<title>F/A&#45;&#45;C/A</title>
<path fill="none" stroke="black" d="M123.57,-293.1C136.87,-283.77 153.39,-269.47 161,-252 183.05,-201.38 150.09,-136.13 132.23,-106.66"/>
</g>
<!-- C/A&#45;&#45;C/D -->
<g id="edge10" class="edge">
<title>C/A&#45;&#45;C/D</title>
<path fill="none" stroke="black" d="M105.23,-75.5C89.82,-63.11 67.11,-44.84 51.72,-32.46"/>
</g>
</g>
</svg>
